<?xml version="1.0" encoding="UTF-8" standalone="no"?>
<!DOCTYPE svg PUBLIC "-//W3C//DTD SVG 1.1//EN" "http://www.w3.org/Graphics/SVG/1.1/DTD/svg11.dtd">
<svg width="100%" height="100%" viewBox="0 0 501 85" version="1.1" xmlns="http://www.w3.org/2000/svg" xmlns:xlink="http://www.w3.org/1999/xlink" xml:space="preserve" xmlns:serif="http://www.serif.com/" style="fill-rule:evenodd;clip-rule:evenodd;stroke-linejoin:round;stroke-miterlimit:2;">
    <g transform="matrix(1,0,0,1,-3327,-1023)">
        <g id="LogoType-transparent" serif:id="LogoType transparent" transform="matrix(1.31579,0,0,0.223158,2143.27,1210.51)">
            <rect x="900" y="-840" width="380" height="380" style="fill:none;"/>
            <clipPath id="_clip1">
                <rect x="900" y="-840" width="380" height="380"/>
            </clipPath>
            <g clip-path="url(#_clip1)">
                <g transform="matrix(1.19256,0,0,7.03162,668.931,-2706.92)">
                    <g transform="matrix(1,0,0,1,-270.974,477.915)">
                        <path d="M535.766,-158.411L535.766,-212.411L571.406,-212.411L571.406,-205.427L543.974,-205.427L543.974,-194.267L568.526,-194.267L568.526,-187.571L543.974,-187.571L543.974,-158.411L535.766,-158.411Z" style="fill-rule:nonzero;"/>
                        <path d="M585.446,-158.411L577.31,-158.411L577.31,-194.915L585.446,-194.915L585.446,-158.411ZM576.806,-212.411L586.094,-212.411L586.094,-201.971L576.806,-201.971L576.806,-212.411Z" style="fill-rule:nonzero;"/>
                        <path d="M593.294,-188.723L593.294,-194.411L598.766,-195.131L598.766,-209.099L606.974,-209.099L606.974,-195.347L618.35,-195.347L618.35,-188.723L606.974,-188.723L606.974,-172.739C606.974,-172.019 606.986,-171.287 607.01,-170.543C607.034,-169.799 607.118,-169.127 607.262,-168.527C607.406,-167.927 607.634,-167.423 607.946,-167.015C608.258,-166.607 608.702,-166.403 609.278,-166.403C609.854,-166.403 610.286,-166.799 610.574,-167.591C610.862,-168.383 611.042,-169.307 611.114,-170.363C611.186,-171.419 611.21,-172.463 611.186,-173.495C611.162,-174.527 611.126,-175.283 611.078,-175.763L618.206,-168.779L618.206,-168.419C618.11,-167.075 617.834,-165.791 617.378,-164.567C616.922,-163.343 616.274,-162.275 615.434,-161.363C614.594,-160.451 613.562,-159.731 612.338,-159.203C611.114,-158.675 609.686,-158.411 608.054,-158.411C605.798,-158.411 604.046,-158.903 602.798,-159.887C601.55,-160.871 600.626,-162.083 600.026,-163.523C599.426,-164.963 599.066,-166.511 598.946,-168.167C598.826,-169.823 598.766,-171.347 598.766,-172.739L598.766,-188.723L593.294,-188.723Z" style="fill-rule:nonzero;"/>
                        <path d="M623.39,-212.411L631.598,-212.411L639.878,-173.315L640.598,-173.315L649.526,-205.571L660.686,-205.571L669.686,-173.315L670.406,-173.315L678.686,-212.411L686.894,-212.411L675.158,-158.411L666.878,-158.411L655.43,-198.155L654.71,-198.155L643.622,-158.411L635.126,-158.411L623.39,-212.411Z" style="fill-rule:nonzero;"/>
                        <path d="M700.934,-158.411L692.798,-158.411L692.798,-194.915L700.934,-194.915L700.934,-158.411ZM692.294,-212.411L701.582,-212.411L701.582,-201.971L692.294,-201.971L692.294,-212.411Z" style="fill-rule:nonzero;"/>
                        <path d="M726.134,-195.491C729.782,-195.491 733.034,-194.795 735.89,-193.403C738.746,-192.011 740.99,-190.163 742.622,-187.859L742.982,-187.355L736.862,-181.235C736.046,-183.539 734.678,-185.279 732.758,-186.455C730.838,-187.631 728.606,-188.219 726.062,-188.219C723.998,-188.219 722.318,-187.835 721.022,-187.067C719.726,-186.299 719.078,-185.243 719.078,-183.899C719.078,-182.795 719.522,-182.003 720.41,-181.523C721.298,-181.043 722.438,-180.803 723.83,-180.803L731.174,-180.731C735.302,-180.683 738.422,-179.687 740.534,-177.743C742.646,-175.799 743.702,-173.339 743.702,-170.363C743.702,-168.587 743.33,-166.967 742.586,-165.503C741.842,-164.039 740.786,-162.779 739.418,-161.723C738.05,-160.667 736.43,-159.851 734.558,-159.275C732.686,-158.699 730.622,-158.411 728.366,-158.411C726.734,-158.411 725.042,-158.579 723.29,-158.915C721.538,-159.251 719.87,-159.719 718.286,-160.319C716.702,-160.919 715.274,-161.663 714.002,-162.551C712.73,-163.439 711.71,-164.459 710.942,-165.611L710.582,-166.043L717.062,-172.451L717.782,-171.227C718.214,-170.507 718.79,-169.847 719.51,-169.247C720.23,-168.647 721.046,-168.131 721.958,-167.699C722.87,-167.267 723.854,-166.931 724.91,-166.691C725.966,-166.451 727.022,-166.331 728.078,-166.331C729.902,-166.331 731.498,-166.739 732.866,-167.555C734.234,-168.371 734.918,-169.547 734.918,-171.083C734.918,-171.947 734.69,-172.631 734.234,-173.135C733.778,-173.639 733.226,-174.011 732.578,-174.251C731.93,-174.491 731.258,-174.659 730.562,-174.755C729.866,-174.851 729.254,-174.899 728.726,-174.899L727.358,-174.971L723.182,-174.971C721.358,-174.971 719.678,-175.151 718.142,-175.511C716.606,-175.871 715.274,-176.411 714.146,-177.131C713.018,-177.851 712.142,-178.775 711.518,-179.903C710.894,-181.031 710.582,-182.387 710.582,-183.971C710.582,-185.795 710.99,-187.415 711.806,-188.831C712.622,-190.247 713.726,-191.447 715.118,-192.431C716.51,-193.415 718.154,-194.171 720.05,-194.699C721.946,-195.227 723.974,-195.491 726.134,-195.491Z" style="fill-rule:nonzero;"/>
                        <path d="M766.094,-195.419C768.206,-195.419 770.114,-195.107 771.818,-194.483C773.522,-193.859 775.022,-193.043 776.318,-192.035C777.614,-191.027 778.694,-189.863 779.558,-188.543C780.422,-187.223 781.07,-185.867 781.502,-184.475C781.694,-183.947 781.85,-183.371 781.97,-182.747C782.09,-182.123 782.15,-181.523 782.15,-180.947C782.15,-180.563 782.138,-180.167 782.114,-179.759C782.09,-179.351 782.03,-178.955 781.934,-178.571L781.862,-178.211L756.59,-173.387C756.974,-171.083 758.03,-169.199 759.758,-167.735C761.486,-166.271 763.958,-165.539 767.174,-165.539C769.478,-165.539 771.446,-166.067 773.078,-167.123C774.71,-168.179 775.934,-169.499 776.75,-171.083L777.182,-171.947L783.374,-165.827L783.086,-165.539C781.31,-163.379 779.066,-161.639 776.354,-160.319C773.642,-158.999 770.558,-158.339 767.102,-158.339C763.598,-158.339 760.658,-158.879 758.282,-159.959C755.906,-161.039 753.986,-162.455 752.522,-164.207C751.058,-165.959 750.002,-167.927 749.354,-170.111C748.706,-172.295 748.382,-174.491 748.382,-176.699C748.382,-178.811 748.658,-180.971 749.21,-183.179C749.762,-185.387 750.71,-187.403 752.054,-189.227C753.398,-191.051 755.21,-192.539 757.49,-193.691C759.77,-194.843 762.638,-195.419 766.094,-195.419ZM773.87,-183.179C773.342,-184.715 772.442,-185.927 771.17,-186.815C769.898,-187.703 768.182,-188.147 766.022,-188.147C764.342,-188.147 762.914,-187.895 761.738,-187.391C760.562,-186.887 759.602,-186.227 758.858,-185.411C758.114,-184.595 757.562,-183.647 757.202,-182.567C756.842,-181.487 756.59,-180.371 756.446,-179.219L773.87,-183.179Z" style="fill-rule:nonzero;"/>
                    </g>
                    <g transform="matrix(-1.32438e-17,-0.216288,-0.216288,1.32438e-17,242.423,443.942)">
                        <path d="M600,100C600,44.808 644.808,0 700,0C755.192,0 800,44.808 800,100L825,100C825,168.989 768.989,225 700,225C631.011,225 575,168.989 575,100L600,100Z" style="fill:rgb(89,146,255);"/>
                    </g>
                </g>
            </g>
        </g>
    </g>
</svg>
